<svg width="45" height="34" viewBox="0 0 45 34" fill="none" xmlns="http://www.w3.org/2000/svg">
<rect width="45" height="34" fill="#A1A1AA"/>
<path d="M18.0625 10.4375L22 6.5L25.9375 10.4375" stroke="white" stroke-width="2" stroke-linecap="round" stroke-linejoin="round"/>
<path d="M22 17V6.5" stroke="white" stroke-width="2" stroke-linecap="round" stroke-linejoin="round"/>
<path d="M26.5 14H28.75C28.9489 14 29.1397 14.079 29.2803 14.2197C29.421 14.3603 29.5 14.5511 29.5 14.75V24.5C29.5 24.6989 29.421 24.8897 29.2803 25.0303C29.1397 25.171 28.9489 25.25 28.75 25.25H15.25C15.0511 25.25 14.8603 25.171 14.7197 25.0303C14.579 24.8897 14.5 24.6989 14.5 24.5V14.75C14.5 14.5511 14.579 14.3603 14.7197 14.2197C14.8603 14.079 15.0511 14 15.25 14H17.5" stroke="white" stroke-width="2" stroke-linecap="round" stroke-linejoin="round"/>
</svg>
